<?xml version="1.0" encoding="utf-8"?>
<!-- Generator: Adobe Illustrator 22.1.0, SVG Export Plug-In . SVG Version: 6.00 Build 0)  -->
<svg version="1.1" id="Layer_1" xmlns="http://www.w3.org/2000/svg" xmlns:xlink="http://www.w3.org/1999/xlink" x="0px" y="0px"
	 viewBox="0 0 566.9 566.9" style="enable-background:new 0 0 566.9 566.9;" xml:space="preserve">
<style type="text/css">
	.st0{fill:#1D1D1B;}
	.st1{fill:#FFFFFF;}
</style>
<rect y="0" class="st0" width="566.9" height="566.9"/>
<g>
	<path class="st1" d="M150,197.2c-29.1,17.7-48.6,49.7-48.6,86.3c0,34.5,17.4,65.1,43.9,83.2c2.4,1.4,4.7,2.8,7,4.1
		c-1.6-17.9,2.3-35.7,11.4-51.5c7.2-12.5,17.5-23.1,29.8-30.7c0.1-0.1,176-101.5,176-101.5c15.1-9.2,23.7-25.2,24.1-41.8
		c0.1-0.8,0.1-88.5,0.1-88.5S151.4,196.4,150,197.2z M379.9,144.9c-0.3,12.5-6.8,23.8-17.5,30.3c-176,101.5-176,101.5-176.5,101.8
		c-13.9,8.6-25.8,20.9-34.1,35.3c-5.8,10-9.8,20.7-11.9,31.8c-15.7-16.1-24.7-37.8-24.7-60.7c0-30.6,15.7-58.5,41.9-74.5
		c2.7-1.6,136.9-78.9,222.8-128.4C380,110.9,379.9,143,379.9,144.9z"/>
	<path class="st1" d="M393.8,304.4V216c0,0-179.3,103.6-179.5,103.7c-23.9,14-32,44.7-18.1,68.7c4.4,7.7,10.6,13.8,17.7,18
		c0.1,0.1,179.9,103.9,179.9,103.9v-88.4c-0.4-16.6-9-32.7-24.1-41.9l-29.1-16.8c0.1-0.1,29.1-16.8,29.1-16.8
		C384.8,337.1,393.4,321.1,393.8,304.4z M362.5,334.5C332.2,352,313,363.1,313,363.1l49.7,28.8c10.4,6.3,16.9,17.7,17.2,30.2l0,64.1
		c-59.4-34.3-145.3-83.9-157.5-91l-1.6-0.9c-5.2-3-9.6-7.5-12.7-12.9c-10.1-17.4-4.2-39.8,13.1-49.9l0.7-0.4
		c8.4-4.9,97.1-56.1,158-91.3v64.5C379.7,316.6,373.2,328,362.5,334.5z"/>
	<path class="st1" d="M263.8,318.8c-14.8-7.9-33.6-8.3-49.2,0.7c-24.1,13.9-32.4,44.8-18.5,68.9c13.7,23.7,43.7,32.1,67.6,19.1
		c0.1,0,76.9-44.3,76.9-44.3S264,318.8,263.8,318.8z M257.1,395.3c-5.3,2.9-11.3,4.4-17.3,4.4c0,0,0,0,0,0c-13,0-25.2-7-31.7-18.3
		c-4.9-8.5-6.2-18.3-3.6-27.8c2.5-9.4,8.6-17.3,17.1-22.2c5.5-3.1,11.8-4.8,18.2-4.8c6.1,0,12.2,1.5,17.5,4.3
		c2.4,1.4,29.9,17.2,55.8,32.2C291.1,375.7,259.4,394,257.1,395.3z"/>
</g>
</svg>
